<svg xmlns="http://www.w3.org/2000/svg" xmlns:xlink="http://www.w3.org/1999/xlink" width="176" height="32" viewBox="0 0 176 32"><defs><path class="path1" d="M26.688 0h-21.375c-2.922 0-5.313 2.391-5.313 5.313v21.375c0 2.922 2.391 5.313 5.313 5.313h21.375c2.922 0 5.313-2.391 5.313-5.313v-21.375c0-2.922-2.391-5.313-5.313-5.313zm-16.444 14h11.513c.218.627.337 1.3.337 2 0 3.36-2.734 6.094-6.094 6.094s-6.094-2.734-6.094-6.094c0-.7.119-1.373.338-2zm17.756.002v11.998c0 1.1-.9 2-2 2h-20c-1.1 0-2-.9-2-2v-12h3.128c-.145.644-.222 1.313-.222 2 0 5.014 4.079 9.094 9.094 9.094s9.094-4.079 9.094-9.094c0-.687-.077-1.356-.222-2l3.128.002zm0-7.002c0 .55-.45 1-1 1h-2c-.55 0-1-.45-1-1v-2c0-.55.45-1 1-1h2c.55 0 1 .45 1 1v2z" id="a"/><path class="path1" d="M32 6.076c-1.177.522-2.443.875-3.771 1.034 1.355-.813 2.396-2.099 2.887-3.632-1.269.752-2.674 1.299-4.169 1.593-1.198-1.276-2.904-2.073-4.792-2.073-3.626 0-6.565 2.939-6.565 6.565 0 .515.058 1.016.17 1.496-5.456-.274-10.294-2.888-13.532-6.86-.565.97-.889 2.097-.889 3.301 0 2.278 1.159 4.287 2.921 5.465-1.076-.034-2.088-.329-2.974-.821l-.001.083c0 3.181 2.263 5.834 5.266 6.437-.551.15-1.131.23-1.73.23-.423 0-.834-.041-1.235-.118.835 2.608 3.26 4.506 6.133 4.559-2.247 1.761-5.078 2.81-8.154 2.81-.53 0-1.052-.031-1.566-.092 2.905 1.863 6.356 2.95 10.064 2.95 12.076 0 18.679-10.004 18.679-18.68 0-.285-.006-.568-.019-.849 1.283-.926 2.396-2.082 3.276-3.398z" id="b"/><path class="path1" d="M16 0c-8.837 0-16 7.163-16 16s7.163 16 16 16 16-7.163 16-16-7.163-16-16-16zm9.502 25.502c-1.235 1.235-2.672 2.204-4.272 2.881-.406.172-.819.323-1.238.453v-2.398c0-1.26-.432-2.188-1.297-2.781.542-.052 1.039-.125 1.492-.219s.932-.229 1.438-.406.958-.388 1.359-.633.786-.563 1.156-.953.68-.833.93-1.328.448-1.089.594-1.781.219-1.456.219-2.289c0-1.615-.526-2.99-1.578-4.125.479-1.25.427-2.609-.156-4.078l-.391-.047c-.271-.031-.758.083-1.461.344s-1.492.688-2.367 1.281c-1.24-.344-2.526-.516-3.859-.516-1.344 0-2.625.172-3.844.516-.552-.375-1.075-.685-1.57-.93s-.891-.411-1.188-.5-.573-.143-.828-.164-.419-.026-.492-.016l-.156.031c-.583 1.479-.635 2.839-.156 4.078-1.052 1.135-1.578 2.51-1.578 4.125 0 .833.073 1.596.219 2.289s.344 1.286.594 1.781.56.938.93 1.328.755.708 1.156.953.854.456 1.359.633.984.313 1.438.406.95.167 1.492.219c-.854.583-1.281 1.51-1.281 2.781v2.445c-.472-.14-.937-.306-1.394-.5-1.6-.677-3.037-1.646-4.272-2.881s-2.204-2.672-2.881-4.272c-.7-1.655-1.055-3.414-1.055-5.23s.355-3.575 1.055-5.23c.677-1.6 1.646-3.037 2.881-4.272s2.672-2.204 4.272-2.881c1.655-.7 3.415-1.055 5.23-1.055s3.575.355 5.23 1.055c1.6.677 3.037 1.646 4.272 2.881s2.204 2.672 2.881 4.272c.7 1.655 1.055 3.415 1.055 5.23s-.355 3.575-1.055 5.23c-.677 1.6-1.646 3.037-2.881 4.272z" id="c"/><path class="path1" d="M26.625 0h-21.25c-2.956 0-5.375 2.419-5.375 5.375v21.25c0 2.956 2.419 5.375 5.375 5.375h21.25c2.956 0 5.375-2.419 5.375-5.375v-21.25c0-2.956-2.419-5.375-5.375-5.375zm-14.625 26h-4v-14h4v14zm-2-16c-1.105 0-2-.895-2-2s.895-2 2-2 2 .895 2 2-.895 2-2 2zm16 16h-4v-8c0-1.105-.895-2-2-2s-2 .895-2 2v8h-4v-14h4v2.483c.825-1.133 2.086-2.483 3.5-2.483 2.485 0 4.5 2.239 4.5 5v9z" id="d"/></defs><use xlink:href="#a"/><use xlink:href="#b" transform="translate(48)"/><use xlink:href="#c" transform="translate(96)"/><use xlink:href="#d" transform="translate(144)"/></svg>